<svg viewBox = "0 0 88 88" width="88" height="88" xmlns="http://www.w3.org/2000/svg"><g transform="matrix(1 0 0 1 44 44)"  ><g style=""   ><g transform="matrix(1 0 0 1 12.88 -8.73)"  ><path style="stroke: none; stroke-width: 1; stroke-dasharray: none; stroke-linecap: butt; stroke-dashoffset: 0; stroke-linejoin: miter; stroke-miterlimit: 4; fill: rgb(99,106,232); fill-rule: nonzero; opacity: 1;"  transform=" translate(-56.88, -35.27)" d="M 74.8794 35.3437 L 67.2341 20.7481 C 66.7184 19.7636 65.7007 19.1448 64.5893 19.1401 L 48.3951 19.0713 L 35.3802 19.0197 C 33.1199 19.0108 31.662 21.4098 32.7109 23.412 L 35.2429 28.2446 L 38.8879 35.201 L 46.533 49.7962 C 47.0488 50.7809 48.0669 51.3997 49.1786 51.4041 L 65.2873 51.4683 L 65.3672 51.4683 L 78.3818 51.5236 C 80.6422 51.5332 82.1008 49.1344 81.0522 47.1319 L 74.8794 35.3437 Z" stroke-linecap="round" /></g><g transform="matrix(1 0 0 1 -0.35 0.45)"  ><path style="stroke: none; stroke-width: 1; stroke-dasharray: none; stroke-linecap: butt; stroke-dashoffset: 0; stroke-linejoin: miter; stroke-miterlimit: 4; fill: rgb(232,97,140); fill-rule: nonzero; opacity: 1;"  transform=" translate(-43.65, -44.45)" d="M 65.1497 60.6969 C 67.41 60.7065 68.8687 58.3077 67.8201 56.3053 L 65.2873 51.4684 L 61.6423 44.5171 L 53.9969 29.9214 C 53.4812 28.9369 52.4636 28.3182 51.3522 28.3134 L 35.2429 28.2447 L 35.163 28.2447 L 22.15 28.1931 C 19.8893 28.1841 18.4313 30.5841 19.4812 32.5862 L 21.9907 37.3721 L 25.6558 44.3693 L 33.3011 58.9649 C 33.8168 59.9494 34.8345 60.5681 35.9459 60.5729 L 52.1351 60.6416 L 52.1401 60.6416 L 65.1497 60.6969 Z" stroke-linecap="round" /></g><g transform="matrix(1 0 0 1 -13.52 9.57)"  ><path style="stroke: none; stroke-width: 1; stroke-dasharray: none; stroke-linecap: butt; stroke-dashoffset: 0; stroke-linejoin: miter; stroke-miterlimit: 4; fill: rgb(34,204,178); fill-rule: nonzero; opacity: 1;"  transform=" translate(-30.48, -53.57)" d="M 52.1401 60.6415 L 48.475 53.6444 L 40.8297 39.0487 C 40.314 38.0642 39.2963 37.4455 38.185 37.4408 L 21.9957 37.372 L 21.9907 37.372 L 8.97957 37.3204 C 6.71959 37.3114 5.26161 39.7099 6.31 41.7121 L 12.4836 53.5017 L 20.1286 68.0968 C 20.6444 69.0816 21.6625 69.7004 22.7742 69.7048 L 38.9628 69.769 L 51.9782 69.8206 C 54.2384 69.8295 55.6964 67.4307 54.6476 65.4285 L 52.1401 60.6415 Z" stroke-linecap="round" /></g><g transform="matrix(1 0 0 1 -6.93 5.01)"  ><path style="stroke: none; stroke-width: 1; stroke-dasharray: none; stroke-linecap: butt; stroke-dashoffset: 0; stroke-linejoin: miter; stroke-miterlimit: 4; fill: rgb(20,117,103); fill-rule: evenodd; opacity: 1;"  transform=" translate(-37.07, -49.01)" d="M 52.1402 60.6417 L 52.1401 60.6416 L 48.4751 53.6444 L 40.8297 39.0488 C 40.3141 38.0643 39.2964 37.4456 38.185 37.4408 L 21.9958 37.3721 L 21.9908 37.3721 L 21.9907 37.3721 L 21.9908 37.3722 L 25.6558 44.3693 L 33.3011 58.965 C 33.8168 59.9495 34.8345 60.5682 35.9459 60.5729 L 52.1351 60.6417 L 52.1401 60.6417 L 52.1402 60.6417 Z" stroke-linecap="round" /></g><g transform="matrix(1 0 0 1 6.27 -4.14)"  ><path style="stroke: none; stroke-width: 1; stroke-dasharray: none; stroke-linecap: butt; stroke-dashoffset: 0; stroke-linejoin: miter; stroke-miterlimit: 4; fill: rgb(27,34,177); fill-opacity: 0.5; fill-rule: evenodd; opacity: 1;"  transform=" translate(-50.27, -39.86)" d="M 65.2873 51.4682 L 61.6422 44.517 L 53.9969 29.9213 C 53.4812 28.9368 52.4635 28.3181 51.3522 28.3134 L 35.2429 28.2446 L 38.8879 35.201 L 46.533 49.7961 C 47.0488 50.7809 48.0669 51.3997 49.1785 51.4041 L 65.2873 51.4682 Z" stroke-linecap="round" /></g></g></g></svg>